HIERARCHY
ROOT Hips
{
	OFFSET 0.00000 0.00000 0.00000
	CHANNELS 6 Xposition Yposition Zposition Zrotation Yrotation Xrotation 
	JOINT LHipJoint
	{
		OFFSET 0 0 0
		CHANNELS 3 Zrotation Yrotation Xrotation
		JOINT LeftHip
		{
			OFFSET 1.56857 -1.73443 1.15205
			CHANNELS 3 Zrotation Yrotation Xrotation
			JOINT LeftKnee
			{
				OFFSET 2.39362 -6.57643 0.00000
				CHANNELS 3 Zrotation Yrotation Xrotation
				JOINT LeftAnkle
				{
					OFFSET 2.50952 -6.89485 0.00000
					CHANNELS 3 Zrotation Yrotation Xrotation
					JOINT LeftToe
					{
						OFFSET 0.17171 -0.47178 1.88682
						CHANNELS 3 Zrotation Yrotation Xrotation
						End Site
						{
							OFFSET 0.00000 -0.00000 0.98146
						}
					}
				}
			}
		}
	}
	JOINT RHipJoint
	{
		OFFSET 0 0 0
		CHANNELS 3 Zrotation Yrotation Xrotation
		JOINT RightHip
		{
			OFFSET -1.28153 -1.73443 1.15205
			CHANNELS 3 Zrotation Yrotation Xrotation
			JOINT RightKnee
			{
				OFFSET -2.26861 -6.23296 0.00000
				CHANNELS 3 Zrotation Yrotation Xrotation
				JOINT RightAnkle
				{
					OFFSET -2.54143 -6.98254 0.00000
					CHANNELS 3 Zrotation Yrotation Xrotation
					JOINT RightToe
					{
						OFFSET -0.23309 -0.64041 1.93119
						CHANNELS 3 Zrotation Yrotation Xrotation
						End Site
						{
							OFFSET -0.00000 -0.00000 1.02013
						}
					}
				}
			}
		}
	}
	JOINT lowerback
	{
		OFFSET 0 0 0
		CHANNELS 3 Zrotation Yrotation Xrotation
		JOINT Chest
		{
			OFFSET -0.07096 2.10460 -0.27878
			CHANNELS 3 Zrotation Yrotation Xrotation
			JOINT Chest2
			{
				OFFSET -0.00826 2.13662 -0.08279
				CHANNELS 3 Zrotation Yrotation Xrotation
				JOINT lowerneck
				{
					OFFSET 0 0 0
					CHANNELS 3 Zrotation Yrotation Xrotation
					JOINT Neck
					{
						OFFSET 0.03239 1.77799 0.24435
						CHANNELS 3 Zrotation Yrotation Xrotation
						JOINT Head
						{
							OFFSET 0.01026 1.74194 -0.49664
							CHANNELS 3 Zrotation Yrotation Xrotation
							End Site
							{
								OFFSET 0.00170 1.83057 -0.19653
							}
						}
					}
				}
				JOINT LeftCollar
				{
					OFFSET 0 0 0
					CHANNELS 3 Zrotation Yrotation Xrotation
					JOINT LeftShoulder
					{
						OFFSET 3.19178 1.35907 -0.31412
CHANNELS 3 Zrotation Xrotation Yrotation
						JOINT LeftElbow
						{
OFFSET 0 -4.852470 -0.000000
CHANNELS 3 Zrotation Xrotation Yrotation
							JOINT LeftWrist
							{
OFFSET 0 -3.555840 0.000000
CHANNELS 3 Zrotation Xrotation Yrotation
								JOINT lhand
								{
									OFFSET 0 0 0
CHANNELS 3 Zrotation Xrotation Yrotation
									JOINT LFingers
									{
OFFSET 0 -0.693200 0.000000
CHANNELS 3 Zrotation Xrotation Yrotation
										End Site
										{
OFFSET 0 -0.558880 0.000000
										}
									}
								}
								JOINT LThumb
								{
OFFSET 0 0.000000 0.000000
CHANNELS 3 Zrotation Xrotation Yrotation
									End Site
									{
OFFSET 0 -0.567410 0.567410
									}
								}
							}
						}
					}
				}
				JOINT RightCollar
				{
					OFFSET 0 0 0
					CHANNELS 3 Zrotation Yrotation Xrotation
					JOINT RightShoulder
					{
						OFFSET -3.28999 1.24191 -0.26899
CHANNELS 3 Zrotation Xrotation Yrotation
						JOINT RightElbow
						{
OFFSET 0 -4.644620 0.000000
CHANNELS 3 Zrotation Xrotation Yrotation
							JOINT RightWrist
							{
OFFSET 0 -3.407030 0.000000
CHANNELS 3 Zrotation Xrotation Yrotation
								JOINT rhand
								{
									OFFSET 0 0 0
CHANNELS 3 Zrotation Xrotation Yrotation
									JOINT RFingers
									{
OFFSET 0 -0.619580 0.000000
CHANNELS 3 Zrotation Xrotation Yrotation
										End Site
										{
OFFSET 0 -0.499520 0.000000
										}
									}
								}
								JOINT RThumb
								{
OFFSET 0 0.000000 0.000000
CHANNELS 3 Zrotation Xrotation Yrotation
									End Site
									{
OFFSET 0 -0.507150 0.507150
									}
								}
							}
						}
					}
				}
			}
		}
	}
}
MOTION
Frames: 5
Frame Time: 0.008333333333333333
-30.278200 17.062100 0.735600 34.105100 87.087400 34.540200 0.000000 0.000000 0.000000 -17.189100 3.786800 8.543600 0.001200 -0.225200 -0.618600 0.298800 4.729200 -13.161900 0.226100 -3.060500 -8.447100 0.000000 0.000000 0.000000 14.881300 -4.372700 5.569200 -0.045300 -1.373700 3.777800 -0.706600 5.520600 -14.975100 -0.342200 -3.759000 10.399700 -4.730000 1.514500 2.192800 -0.133200 1.926900 0.763400 2.459100 0.967400 -0.595400 3.364900 0.717300 -19.910600 -0.415100 0.268600 24.544600 -0.657000 0.482500 11.284100 0.000000 0.000000 0.000000 1.547800 -0.384300 -36.955200 11.320000 -18.777000 1.877600 14.427600 11.474700 25.903900 0.000000 0.000000 0.000000 -7.125000 0.000000 0.000000 -9.269300 3.645400 -8.778800 0.000000 0.000000 0.000000 -90.000000 0.000000 -0.000000 0.000000 0.000000 -0.000000 0.000000 0.000000 -0.000000 0.000000 0.000000 0.000000 0.000000 -0.000000 0.000000 0.000000 0.000000 0.000000
-30.278789 17.061509 0.738944 31.222071 87.227914 31.725485 0.000000 0.000000 0.000000 -16.926321 3.734651 8.466372 0.000980 -0.203293 -0.558503 0.314711 4.603461 -13.303784 0.284064 -3.427567 -9.471414 0.000000 0.000000 0.000000 15.123244 -4.457420 5.472465 -0.044402 -1.359560 3.738657 -0.695911 5.543700 -14.861368 -0.393362 -4.027324 11.153593 -4.547728 1.457657 2.090698 -0.069972 1.860509 0.774715 2.427174 0.932033 -0.517871 3.430327 0.759248 -19.946430 -0.584045 0.350979 24.538509 -0.717346 0.503071 11.290638 0.000000 0.000000 0.000000 1.500819 -0.454791 -36.825008 11.316446 -18.771695 1.876520 14.690032 11.496732 25.941061 0.000000 0.000000 0.000000 -7.125000 0.000000 0.000000 -9.113301 3.571140 -8.639774 0.000000 0.000000 0.000000 -90.000000 0.000000 0.000000 0.000000 0.000000 0.000000 0.000000 0.000000 0.000000 0.000000 0.000000 0.000000 0.000000 0.000000 0.000000 0.000000 0.000000 0.000000
-30.231973 17.046358 0.711191 63.064812 85.190765 63.008287 0.000000 0.000000 0.000000 -20.778543 4.075413 9.409360 0.003740 -0.395235 -1.085945 0.316080 4.566655 -13.295285 0.294344 -3.485834 -9.634745 0.000000 0.000000 0.000000 10.760758 -6.756234 5.762195 -0.040669 -1.302006 3.580074 -0.589067 7.440789 -13.855686 -0.371818 -3.916721 10.842445 -6.986591 1.440714 2.508318 -0.985453 1.758207 0.655000 2.837211 0.902169 -0.908991 3.594344 0.756320 -19.696612 -0.720403 0.359074 24.821192 -0.793594 0.514960 11.349574 0.000000 0.000000 0.000000 1.598218 0.238854 -36.860439 11.352660 -18.826756 1.888131 12.956187 12.202983 26.235311 0.000000 0.000000 0.000000 -7.125000 0.000000 0.000000 -10.175836 3.515281 -9.689294 0.000000 0.000000 0.000000 -2.875748 4.161329 38.535277 -16.259030 -25.870581 -3.758308 -10.168123 13.611663 30.958242 0.000000 0.000000 0.000000 7.125000 0.000000 0.000000 24.473630 59.633839 -9.073872
-30.231000 17.043128 0.713464 63.258131 85.046588 63.258165 0.000000 0.000000 0.000000 -21.249080 3.257675 9.950112 0.008471 -0.593885 -1.631973 0.273897 5.676661 -13.594509 0.326719 -3.673265 -10.159303 0.000000 0.000000 0.000000 10.590587 -6.716712 5.753108 -0.038409 -1.265200 3.478862 -0.573507 7.459646 -13.687341 -0.413801 -4.127434 11.435709 -7.115982 1.490727 2.428263 -1.073920 1.828683 0.637653 2.817011 0.938070 -0.889981 3.796746 0.758991 -19.824587 -0.885481 0.338165 24.915115 -0.891745 0.504828 11.410365 0.000000 0.000000 0.000000 1.734805 0.222345 -37.017408 11.367172 -18.848881 1.892874 13.492965 11.858746 26.351608 0.000000 0.000000 0.000000 -7.125000 0.000000 0.000000 -9.859715 3.326488 -9.414687 0.000000 0.000000 0.000000 -3.095083 4.038613 39.798617 -16.194253 -25.783353 -3.730087 -10.633304 12.462551 31.046737 0.000000 0.000000 0.000000 7.125000 0.000000 0.000000 24.069072 59.820656 -9.022059
-30.232269 17.041753 0.713431 63.264552 85.207738 63.284106 0.000000 0.000000 0.000000 -20.865928 3.740685 9.518710 0.004816 -0.447502 -1.229624 0.305959 4.906553 -13.416884 0.292604 -3.478587 -9.614224 0.000000 0.000000 0.000000 10.828564 -6.565766 5.812507 -0.037293 -1.245979 3.425935 -0.589426 7.334647 -13.843747 -0.443617 -4.273425 11.847294 -6.988394 1.461606 2.434505 -1.028767 1.791620 0.635329 2.793774 0.918865 -0.889903 3.861554 0.797840 -19.907442 -0.946937 0.383014 24.903299 -0.918421 0.522033 11.423578 0.000000 0.000000 0.000000 1.788717 0.219431 -37.256632 11.418228 -18.926517 1.909390 13.844540 11.545394 26.237759 0.000000 0.000000 0.000000 -7.125000 0.000000 0.000000 -9.642023 3.392558 -9.187718 0.000000 0.000000 0.000000 -3.128662 4.014286 39.723269 -16.221193 -25.819665 -3.741757 -10.430242 12.392288 30.816585 0.000000 0.000000 0.000000 7.125000 0.000000 0.000000 24.087660 59.566071 -8.881321
